PathFileType	4	(X/Y/Z)	C:\Users\WrightLab\Desktop\Jo\P1_boxCal2.trc
DataRate	CameraRate	NumFrames	NumMarkers	Units	OrigDataRate	OrigDataStartFrame	OrigNumFrames
100.00	100.00	       7	19	mm	100.00	207	       825
Frame#	Time	Headset_Front			Headset_Back			Headset_Left			Headset_Right			Left_Shoulder			Right_Shoulder			Sternum			C7			Left Elbow			Right Elbow			Left Wrist			Right Wrist			Left ASIS			Right ASIS			S2			Left Knee			Right Knee			Left Ankle			Right Ankle			
		X1	Y1	Z1	X2	Y2	Z2	X3	Y3	Z3	X4	Y4	Z4	X5	Y5	Z5	X6	Y6	Z6	X7	Y7	Z7	X8	Y8	Z8	X9	Y9	Z9	X10	Y10	Z10	X11	Y11	Z11	X12	Y12	Z12	X13	Y13	Z13	X14	Y14	Z14	X15	Y15	Z15	X16	Y16	Z16	X17	Y17	Z17	X18	Y18	Z18	X19	Y19	Z19	

207	2.060	-421.62524	1346.04395	-342.30035	-376.51337	1521.98682	-592.52869	-285.84293	1436.40613	-472.07883	-509.59146	1396.58508	-450.20786	-192.46121	1258.74353	-562.99420	-560.92554	1270.06335	-568.13525	-405.47064	1152.35999	-449.12521	-362.74768	1283.53052	-686.98016	-104.19055	941.50360	-570.67816	-666.95612	1010.40790	-632.27106	-42.89122	776.06812	-466.87518	-712.78400	771.73090	-560.05682	-514.29950	885.25708	-456.13474	-315.86392	870.02075	-430.56171	-367.45255	895.60999	-745.43958	-608.45752	455.21609	-515.32959	-233.22473	433.78281	-509.87570	-612.85144	116.52685	-658.45984	-247.13438	73.01306	-562.91229	
208	2.070	-422.46161	1347.38062	-335.87979	-377.83148	1520.45251	-588.78619	-286.50293	1436.41016	-469.25104	-510.78281	1396.65881	-447.87430	-193.74634	1258.41772	-560.10260	-562.32599	1269.69873	-566.19574	-406.40512	1152.37769	-446.46686	-363.30731	1283.47559	-683.86249	-104.81316	941.23798	-568.33099	-668.12451	1010.76727	-631.42834	-44.28575	776.04724	-463.24280	-715.25824	772.28473	-560.74237	-516.93585	885.60553	-454.58026	-317.03775	870.33533	-428.45776	-368.57538	896.17828	-743.55371	-610.30475	456.07175	-512.32477	-234.59778	434.00912	-508.20700	-619.21759	114.92610	-650.86121	-248.00446	72.88540	-561.62726	
209	2.080	-424.39713	1346.81177	-335.63181	-378.58994	1520.67908	-586.72742	-288.37064	1436.07666	-465.97925	-512.04181	1396.72729	-445.54138	-194.72420	1257.96729	-556.10181	-563.04590	1269.29028	-563.24194	-408.78583	1151.17188	-443.51337	-364.79959	1283.84839	-681.37866	-105.84875	941.52594	-565.29962	-669.41119	1011.26910	-630.01544	-45.80410	775.86713	-458.84204	-717.08423	772.49347	-561.21143	-518.03979	884.31024	-452.59787	-319.57364	868.95514	-427.66873	-369.60278	896.02899	-741.38202	-612.91748	457.70450	-510.73495	-236.14522	433.09933	-507.25885	-627.05670	114.29256	-642.26392	-248.00446	72.88540	-561.62726	
210	2.090	-426.46802	1346.95715	-333.95517	-379.92590	1520.19800	-583.43549	-289.64041	1435.41602	-462.98627	-514.13354	1396.85205	-443.45380	-196.73036	1257.45166	-552.97961	-564.48798	1269.21301	-560.83258	-409.37189	1151.07922	-439.09247	-365.17072	1283.34583	-678.19354	-107.09850	941.38037	-561.66437	-671.01752	1011.09961	-628.19427	-48.24409	775.45111	-454.61121	-719.30096	771.90643	-560.64868	-520.02972	884.91388	-452.00159	-321.66370	868.40057	-425.22479	-370.51117	896.22736	-739.17163	-615.48364	458.41559	-507.77875	-237.80533	433.33038	-504.87463	-631.99500	111.63295	-634.86938	-247.97162	73.06963	-561.39142	
211	2.100	-428.33649	1346.46667	-331.47284	-380.74741	1521.05139	-581.95184	-291.27194	1435.28467	-459.70737	-515.16681	1396.40686	-440.11230	-197.32623	1257.48914	-550.24463	-566.09320	1269.12122	-558.42090	-409.95465	1150.26685	-436.67383	-367.06003	1283.94824	-675.98676	-108.53636	940.86609	-557.70789	-672.26471	1011.17493	-626.67346	-50.16579	774.81226	-450.35858	-722.07928	772.01672	-560.96307	-521.54175	884.36871	-449.73892	-322.99637	867.89636	-423.35324	-371.28387	896.24084	-737.49945	-618.81299	459.28983	-506.57138	-239.36040	432.88406	-503.17908	-640.02557	112.22195	-627.42908	-247.97162	73.06963	-561.39142	
212	2.110	-430.62808	1345.11548	-328.70126	-383.12402	1520.77600	-578.77551	-293.05307	1435.48633	-458.51108	-517.35504	1396.19580	-437.94522	-199.42918	1257.65002	-547.83594	-567.48767	1269.06482	-556.04419	-411.61121	1149.24512	-435.72876	-367.90683	1283.14136	-672.64374	-110.52914	940.15210	-553.62616	-673.83331	1010.75232	-625.43756	-52.69186	774.62213	-446.70590	-723.95898	771.78540	-560.93463	-523.87567	884.40118	-449.15369	-325.20081	867.93365	-420.69540	-372.79236	896.29773	-735.57794	-621.66888	459.96494	-504.25400	-241.00136	432.13559	-501.50586	-646.74750	110.47795	-618.94354	-248.30678	73.07316	-561.17462	
213	2.120	-432.75580	1345.62207	-327.00815	-384.32233	1520.74402	-576.60052	-294.31622	1435.01160	-454.61398	-519.27600	1396.21655	-435.24240	-201.54845	1256.98193	-544.02704	-569.08661	1268.56055	-553.50977	-414.82062	1149.52869	-433.71124	-369.67105	1283.39355	-670.55530	-112.21078	939.97534	-551.31775	-675.17139	1010.50000	-623.56671	-54.75619	774.24518	-442.84644	-727.46210	771.82709	-561.53369	-525.07208	882.42767	-447.37079	-326.64606	866.54645	-417.32666	-374.17255	896.57843	-733.60004	-625.31183	460.97076	-501.74643	-241.81209	431.77567	-500.24014	-654.44733	109.89499	-611.47443	-248.30678	73.07316	-561.17462	
